<svg width="41" height="36" viewBox="0 0 41 36" fill="none" xmlns="http://www.w3.org/2000/svg">
<path d="M18.3666 9.39028C19.348 4.41676 23.7334 0.666016 28.9948 0.666016C34.9779 0.666016 39.8281 5.51626 39.8281 11.4993C39.8281 15.9074 37.1954 19.7005 33.4166 21.3921M18.3666 9.39028C14.3523 9.80428 10.9886 12.4078 9.49479 15.8327C4.29479 16.6452 0.828125 20.8471 0.828125 25.3957C0.828125 30.8837 5.48436 35.3327 11.2281 35.3327L26.8281 35.3327C31.6146 35.3327 35.4948 31.5885 35.4948 26.9697C35.4948 24.8956 34.7123 22.9173 33.4166 21.3921M18.3666 9.39028C18.7356 9.35224 19.11 9.33268 19.4889 9.33268C25.2567 9.33268 29.9707 13.6459 30.2948 19.0827C31.5044 19.5926 32.57 20.3957 33.4166 21.3921" stroke="white" stroke-linecap="round" stroke-linejoin="round"/>
</svg>
