<svg width="52" height="52" viewBox="0 0 52 52" fill="none" xmlns="http://www.w3.org/2000/svg">
<path d="M26 19.5C31.4167 19.5 34.6667 21.6667 36.8333 26M26 13C16.4271 13 8.66667 20.7604 8.66667 30.3333C8.66667 33.4905 9.51075 36.4505 10.9856 39M26 13C35.5729 13 43.3333 20.7604 43.3333 30.3333C43.3333 33.4905 42.4893 36.4505 41.0144 39M26 13C27.7949 13 29.25 11.5449 29.25 9.75C29.25 7.95507 27.7949 6.5 26 6.5C24.2051 6.5 22.75 7.95507 22.75 9.75C22.75 11.5449 24.2051 13 26 13ZM9.75 45.5H42.25C44.0449 45.5 45.5 44.0449 45.5 42.25C45.5 40.4551 44.0449 39 42.25 39H9.75C7.95507 39 6.5 40.4551 6.5 42.25C6.5 44.0449 7.95507 45.5 9.75 45.5Z" stroke="white" stroke-linecap="round" stroke-linejoin="round"/>
</svg>
