<svg width="52" height="52" viewBox="0 0 52 52" fill="none" xmlns="http://www.w3.org/2000/svg">
<path d="M45.5 45.5L28.8569 18.6862M45.5 28.0312C40.7359 33.4289 33.7655 36.8333 26 36.8333C18.2345 36.8333 11.2641 33.4289 6.5 28.0312M6.5 45.5L23.1431 18.6862M26 8.66667C23.0085 8.66667 20.5833 11.0918 20.5833 14.0833C20.5833 16.0263 21.6063 17.7303 23.1431 18.6862M26 8.66667C28.9915 8.66667 31.4167 11.0918 31.4167 14.0833C31.4167 16.0263 30.3937 17.7303 28.8569 18.6862M26 8.66667V6.5M28.8569 18.6862C28.0276 19.202 27.0486 19.5 26 19.5C24.9514 19.5 23.9724 19.202 23.1431 18.6862" stroke="white" stroke-linecap="round" stroke-linejoin="round"/>
</svg>
