<svg width="37" height="46" viewBox="0 0 37 46" fill="none" xmlns="http://www.w3.org/2000/svg">
<path d="M20.8281 1.33398L16.4948 5.65746L16.623 5.78592M16.4948 36.0008L20.8281 40.1407L20.7639 40.2078M16.623 5.78592L20.8281 10.0007M16.623 5.78592C17.2916 5.70759 17.9718 5.66732 18.6615 5.66732C28.2344 5.66732 35.9948 13.4277 35.9948 23.0007C35.9948 28.4745 33.4575 33.3557 29.4948 36.5323M7.82813 9.46901C3.86545 12.6456 1.32812 17.5268 1.32812 23.0007C1.32812 32.5736 9.08852 40.334 18.6615 40.334C19.3731 40.334 20.0747 40.2911 20.7639 40.2078M16.4948 44.6675L20.7639 40.2078" stroke="white" stroke-linecap="round" stroke-linejoin="round"/>
</svg>
