<svg width="40" height="40" viewBox="0 0 40 40" fill="none" xmlns="http://www.w3.org/2000/svg">
<path d="M21.6676 20.0009C21.6676 20.9214 20.9214 21.6676 20.0009 21.6676V22.6676C21.4737 22.6676 22.6676 21.4737 22.6676 20.0009H21.6676ZM20.0009 21.6676C19.0804 21.6676 18.3342 20.9214 18.3342 20.0009H17.3342C17.3342 21.4737 18.5282 22.6676 20.0009 22.6676V21.6676ZM18.3342 20.0009C18.3342 19.0804 19.0804 18.3342 20.0009 18.3342V17.3342C18.5282 17.3342 17.3342 18.5282 17.3342 20.0009H18.3342ZM20.0009 18.3342C20.9214 18.3342 21.6676 19.0804 21.6676 20.0009H22.6676C22.6676 18.5282 21.4737 17.3342 20.0009 17.3342V18.3342ZM20.0009 20.5009H20.0226V19.5009H20.0009V20.5009ZM27.3077 27.3077C22.6925 31.9228 17.6804 35.2329 13.3254 36.8661C8.9239 38.5166 5.3932 38.3915 3.50176 36.5001L2.79465 37.2072C5.13389 39.5464 9.20596 39.4789 13.6765 37.8024C18.1934 36.1086 23.3225 32.7071 28.0148 28.0148L27.3077 27.3077ZM3.50176 36.5001C1.61031 34.6086 1.4852 31.0779 3.13575 26.6765C4.76888 22.3214 8.07899 17.3093 12.6941 12.6941L11.987 11.987C7.2947 16.6794 3.89327 21.8084 2.19942 26.3254C0.522973 30.7959 0.455412 34.8679 2.79465 37.2072L3.50176 36.5001ZM12.6941 12.6941C17.3093 8.07898 22.3214 4.76888 26.6765 3.13574C31.0779 1.4852 34.6086 1.61031 36.5001 3.50176L37.2072 2.79465C34.8679 0.455411 30.7959 0.522971 26.3254 2.19942C21.8084 3.89327 16.6794 7.2947 11.987 11.987L12.6941 12.6941ZM36.5001 3.50176C38.3915 5.3932 38.5166 8.9239 36.8661 13.3254C35.2329 17.6804 31.9228 22.6925 27.3077 27.3077L28.0148 28.0148C32.7071 23.3225 36.1086 18.1934 37.8024 13.6765C39.4789 9.20596 39.5464 5.13389 37.2072 2.79465L36.5001 3.50176ZM27.3077 12.6941C31.9228 17.3093 35.2329 22.3214 36.8661 26.6765C38.5166 31.0779 38.3915 34.6086 36.5001 36.5001L37.2072 37.2072C39.5464 34.8679 39.4789 30.7959 37.8024 26.3254C36.1086 21.8084 32.7071 16.6794 28.0148 11.987L27.3077 12.6941ZM36.5001 36.5001C34.6086 38.3915 31.0779 38.5166 26.6765 36.8661C22.3214 35.2329 17.3093 31.9228 12.6941 27.3077L11.987 28.0148C16.6794 32.7071 21.8084 36.1086 26.3254 37.8024C30.7959 39.4789 34.8679 39.5464 37.2072 37.2072L36.5001 36.5001ZM12.6941 27.3077C8.07898 22.6925 4.76888 17.6804 3.13574 13.3254C1.4852 8.9239 1.61031 5.3932 3.50176 3.50176L2.79465 2.79465C0.455411 5.13389 0.522971 9.20596 2.19942 13.6765C3.89327 18.1934 7.2947 23.3225 11.987 28.0148L12.6941 27.3077ZM3.50176 3.50176C5.3932 1.61031 8.9239 1.4852 13.3254 3.13574C17.6804 4.76888 22.6925 8.07898 27.3077 12.6941L28.0148 11.987C23.3225 7.2947 18.1934 3.89327 13.6765 2.19942C9.20596 0.522971 5.13389 0.455411 2.79465 2.79465L3.50176 3.50176Z" fill="white"/>
</svg>
