<svg width="500" height="89" viewBox="0 0 500 89" fill="none" xmlns="http://www.w3.org/2000/svg">
<path d="M68.5105 16.6312L68 23.1763H68.9231L68.9557 22.8061C69.2615 19.2195 69.8788 17.6204 72.7134 17.6204H79.6292V48.6136C79.6292 50.1763 78.9317 50.4403 76.8362 50.4403H75.8033V51.3506H87.5661V50.4403H86.5332C84.4377 50.4403 83.7401 50.1763 83.7401 48.6136V17.6204H90.6559C93.4905 17.6204 94.1079 19.2225 94.4136 22.8061L94.4463 23.1763H95.3694L94.8589 16.6312H68.5105Z" fill="white"/>
<path d="M117.473 17.5445H118.506C120.605 17.5445 121.302 17.8085 121.302 19.3712V33.3203H104.452V19.3712C104.452 17.8085 105.149 17.5445 107.248 17.5445H108.281V16.6342H96.5181V17.5445H97.551C99.6495 17.5445 100.344 17.8085 100.344 19.3712V48.6166C100.344 50.1794 99.6465 50.4434 97.551 50.4434H96.5181V51.3537H108.281V50.4434H107.248C105.149 50.4434 104.452 50.1794 104.452 48.6166V34.3338H121.302V48.6166C121.302 50.1794 120.605 50.4434 118.506 50.4434H117.473V51.3537H129.236V50.4434H128.203C126.105 50.4434 125.407 50.1794 125.407 48.6166V19.3712C125.407 17.8085 126.105 17.5445 128.203 17.5445H129.236V16.6342H117.473V17.5445Z" fill="white"/>
<path d="M157.603 48.4467C157.303 47.7913 156.766 46.7141 156.098 45.3698C155.133 43.4309 153.934 41.0185 152.735 38.4636C151.643 36.1332 150.393 34.7525 148.882 34.2397C155.187 32.1338 157.668 29.5182 157.668 25.088C157.668 19.7171 153.72 16.6372 146.837 16.6372H131.159V17.5475H132.192C134.291 17.5475 134.988 17.8115 134.988 19.3712V48.6166C134.988 50.1794 134.291 50.4434 132.192 50.4434H131.159V51.3537H142.922V50.4434H141.889C139.791 50.4434 139.093 50.1794 139.093 48.6166V41.0944C139.093 39.6986 139.767 37.5867 145.484 35.3898C145.976 35.2714 146.932 35.3169 147.805 37.0738C148.897 39.2768 150.785 43.2033 152.192 46.1315L153.474 48.7957C154.626 51.1746 156.588 51.3628 158.419 51.3628C158.591 51.3628 158.76 51.3628 158.929 51.3597H161.666V50.4434H160.224C159.541 50.4434 158.277 49.9123 157.603 48.4467ZM147.529 33.6359C146.603 33.9272 145.786 34.2094 145.024 34.5037H145.018C142.118 35.6264 140.162 36.8827 139.093 38.3179V17.6234H146.837C151.174 17.6234 153.56 20.2755 153.56 25.085C153.56 29.8945 151.755 32.3129 147.526 33.6328L147.529 33.6359Z" fill="white"/>
<path d="M234.163 45.1757C233.858 48.7623 233.24 50.3614 230.406 50.3614H216.346V34.0061H225.808C227.337 34.0061 227.595 34.7192 227.595 36.8645V37.3985H228.485V29.6244H227.595V30.1585C227.595 32.3007 227.337 33.0138 225.808 33.0138L216.346 33.0199V17.6204H229.64C232.475 17.6204 233.092 19.2225 233.398 22.8061L233.427 23.1763H234.35L233.84 16.6312H200.659V17.5415H201.902C202.846 17.5415 203.755 17.59 203.986 17.9451C204.126 18.1605 204.072 18.6005 203.823 19.2134L193.2 45.3213L182.704 19.2165C182.458 18.6005 182.402 18.1635 182.541 17.9481C182.776 17.593 183.684 17.5415 184.634 17.5415H185.877V16.6312H162.96V17.5415H163.993C166.089 17.5415 166.786 17.8055 166.786 19.3682V48.6136C166.786 50.1763 166.089 50.4403 163.993 50.4403H162.96V51.3506H174.723V50.4403H173.69C171.595 50.4403 170.897 50.1763 170.897 48.6136V19.3682C170.897 17.8055 171.595 17.5415 173.69 17.5415H174.723V17.5354C176.721 17.5445 177.679 17.8358 178.362 19.5229L191.526 52L204.77 19.4683C205.452 17.8267 206.417 17.5445 208.409 17.5384V17.5445H209.442C211.537 17.5445 212.235 17.8085 212.235 19.3712V48.6166C212.235 50.1794 211.537 50.4434 209.442 50.4434H208.409V51.3537H234.606L235.116 44.8055H234.193L234.163 45.1757Z" fill="white"/>
<path d="M272.381 36.734L261.126 16.6312H250.562V17.5415H251.595C253.691 17.5415 254.388 17.8055 254.388 19.3682V48.6136C254.388 50.1763 253.691 50.4403 251.595 50.4403H250.562V51.3506H262.29V50.4403H261.257C259.158 50.4403 258.461 50.1763 258.461 48.6166V20.3422L259.9 22.9123C263.394 29.1511 268.65 38.5303 269.639 40.2872L269.968 40.8759C268.618 43.2367 267.273 45.8432 267.273 47.588C267.273 49.8759 268.662 51.3537 270.814 51.3537C273.969 51.3537 275.854 49.2539 275.854 45.734C275.854 43.3429 274.317 40.2235 272.93 37.7232L283.984 18.8554V48.6166C283.984 50.1794 283.286 50.4434 281.188 50.4434H280.155V51.3537H291.918V50.4434H290.885C288.786 50.4434 288.089 50.1794 288.089 48.6166V19.3712C288.089 17.8085 288.786 17.5445 290.882 17.5445H291.915V16.6342H284.153L272.378 36.737L272.381 36.734ZM270.817 50.3614C269.205 50.3614 268.244 49.3237 268.244 47.585C268.244 46.2134 269.401 43.8951 270.529 41.8712C271.826 44.2107 272.925 46.3773 272.925 47.7245C272.925 49.3479 272.117 50.3584 270.82 50.3584L270.817 50.3614Z" fill="white"/>
<path d="M354.234 45.1757C353.929 48.7623 353.311 50.3614 350.477 50.3614H336.672V19.3682C336.672 17.8055 337.369 17.5415 339.465 17.5415H340.498V16.6312H328.735V17.5415H329.768C331.863 17.5415 332.561 17.8055 332.561 19.3682V48.6136C332.561 50.1763 331.863 50.4403 329.768 50.4403H328.037C325.966 50.4403 324.986 50.1672 324.291 48.4589L310.89 16L297.433 48.4589C296.735 50.1642 295.756 50.4403 293.681 50.4403H292.862V51.3506H301.544V50.4403H300.255C299.311 50.4403 298.409 50.3918 298.178 50.0367C298.041 49.8243 298.097 49.3874 298.35 48.7805L299.647 45.6551C299.92 44.9936 300.801 42.8725 301.917 40.178H316.12L319.67 48.7714C319.922 49.3844 319.982 49.8213 319.845 50.0367C319.617 50.3918 318.708 50.4403 317.767 50.4403H316.476V51.3506H354.679L355.19 44.8024H354.267L354.237 45.1726L354.234 45.1757ZM302.312 39.2252C305.108 32.4798 309.029 23.0246 309.029 23.0246L315.725 39.2252H302.312Z" fill="white"/>
<path d="M356.6 17.5445H357.633C359.731 17.5445 360.429 17.8085 360.429 19.3712V48.6166C360.429 50.1794 359.731 50.4434 357.633 50.4434H356.6V51.3537H368.363V50.4434H367.33C365.231 50.4434 364.534 50.1794 364.534 48.6166V19.3712C364.534 17.8085 365.231 17.5445 367.33 17.5445H368.363V16.6342H356.6V17.5445Z" fill="white"/>
<path d="M396.317 35.4777C394.64 34.0455 392.669 33.3082 391.019 33.0866C395.132 31.1871 396.851 28.7748 396.851 25.085C396.851 19.7141 392.903 16.6342 386.02 16.6342H370.342V17.5445H371.375C373.471 17.5445 374.168 17.8085 374.168 19.3712V48.6166C374.168 50.1794 373.471 50.4434 371.375 50.4434H370.342V51.3537H388.318C395.26 51.3537 399.404 47.9369 399.404 42.2111C399.404 38.8277 397.727 36.6824 396.317 35.4808V35.4777ZM378.279 17.6234H386.023C390.36 17.6234 392.746 20.2724 392.746 25.085C392.746 29.8975 390.941 32.3159 386.712 33.6359C383.809 34.5492 380.028 35.9784 378.279 38.324V17.6234ZM388.321 50.3614H378.279V41.0974C378.279 39.4771 379.185 37.0374 387 34.5796L387.323 34.4764C388.953 34.0334 390.846 34.4916 392.384 35.7023C394.263 37.18 395.296 39.4892 395.296 42.208C395.296 46.265 393.138 50.3614 388.318 50.3614H388.321Z" fill="white"/>
<path d="M423.377 16.6312V17.5415H424.41C426.509 17.5415 427.206 17.8055 427.206 19.3682V40.5118C427.206 44.1409 425.069 50.2825 417.055 50.2825C409.486 50.2825 408.516 45.0604 408.516 40.5118V19.3682C408.516 17.8055 409.213 17.5415 411.309 17.5415H412.342V16.6312H400.579V17.5415H401.612C403.707 17.5415 404.405 17.8055 404.405 19.3682V40.5118C404.405 47.5 408.899 51.3506 417.052 51.3506C425.847 51.3506 428.171 44.2623 428.171 40.5118V19.3682C428.171 17.8055 428.869 17.5415 430.967 17.5415H432V16.6312H423.377Z" fill="white"/>
<path d="M156.673 76V66.186H160.831C161.765 66.186 162.455 66.4007 162.903 66.83C163.351 67.2593 163.575 67.852 163.575 68.608C163.575 69.364 163.356 69.9567 162.917 70.386C162.488 70.806 161.816 71.0253 160.901 71.044L163.617 76H163.057L160.327 71.044H157.149V76H156.673ZM157.149 70.554H160.831C161.606 70.554 162.175 70.3953 162.539 70.078C162.903 69.7607 163.085 69.2707 163.085 68.608C163.085 67.9453 162.903 67.46 162.539 67.152C162.175 66.8347 161.606 66.676 160.831 66.676H157.149V70.554ZM167.728 76V66.2H173.58V66.676H168.204V70.736H173.104V71.24H168.204V75.51H173.762V76H167.728ZM177.881 76V66.2H178.357V70.652H184.349V66.2H184.839V76H184.349V71.128H178.357V76H177.881ZM188.545 76L192.563 66.2H192.983L197.001 76H196.483L195.125 72.64H190.435L189.063 76H188.545ZM190.617 72.164H194.929L192.787 66.858L190.617 72.164ZM200.716 76V66.2H204.02C205.028 66.2 205.747 66.4193 206.176 66.858C206.605 67.2967 206.82 67.9033 206.82 68.678C206.82 69.182 206.694 69.6207 206.442 69.994C206.19 70.358 205.854 70.6333 205.434 70.82C206.031 71.0253 206.498 71.3613 206.834 71.828C207.17 72.2947 207.338 72.8173 207.338 73.396C207.338 74.2173 207.1 74.8567 206.624 75.314C206.157 75.7713 205.378 76 204.286 76H200.716ZM201.192 75.51H204.286C205.201 75.51 205.854 75.3373 206.246 74.992C206.647 74.6373 206.848 74.1053 206.848 73.396C206.848 72.7053 206.605 72.15 206.12 71.73C205.644 71.3007 205.014 71.086 204.23 71.086H201.192V75.51ZM201.192 70.61H204.23C204.893 70.61 205.406 70.4233 205.77 70.05C206.143 69.6767 206.33 69.2193 206.33 68.678C206.33 67.9873 206.148 67.4833 205.784 67.166C205.42 66.8393 204.832 66.676 204.02 66.676H201.192V70.61ZM211.958 76.154C211.78 76.154 211.626 76.0933 211.496 75.972C211.374 75.8507 211.314 75.7013 211.314 75.524C211.314 75.3373 211.374 75.1833 211.496 75.062C211.626 74.9407 211.78 74.88 211.958 74.88C212.135 74.88 212.284 74.9407 212.406 75.062C212.527 75.1833 212.588 75.3373 212.588 75.524C212.588 75.7013 212.527 75.8507 212.406 75.972C212.284 76.0933 212.135 76.154 211.958 76.154Z" fill="white"/>
<path d="M221.445 76V66.186H225.603C226.536 66.186 227.227 66.4007 227.675 66.83C228.123 67.2593 228.347 67.852 228.347 68.608C228.347 69.364 228.128 69.9567 227.689 70.386C227.26 70.806 226.588 71.0253 225.673 71.044L228.389 76H227.829L225.099 71.044H221.921V76H221.445ZM221.921 70.554H225.603C226.378 70.554 226.947 70.3953 227.311 70.078C227.675 69.7607 227.857 69.2707 227.857 68.608C227.857 67.9453 227.675 67.46 227.311 67.152C226.947 66.8347 226.378 66.676 225.603 66.676H221.921V70.554ZM232.5 76V66.2H238.352V66.676H232.976V70.736H237.876V71.24H232.976V75.51H238.534V76H232.5ZM245.677 76.154C244.967 76.154 244.323 76.042 243.745 75.818C243.166 75.594 242.667 75.258 242.247 74.81L242.597 74.474C243.353 75.2767 244.379 75.678 245.677 75.678C246.115 75.678 246.545 75.608 246.965 75.468C247.394 75.3187 247.744 75.0947 248.015 74.796C248.295 74.488 248.435 74.1007 248.435 73.634C248.435 73.242 248.355 72.8967 248.197 72.598C248.038 72.2993 247.735 72.0427 247.287 71.828C246.848 71.604 246.199 71.4267 245.341 71.296C243.474 70.988 242.541 70.0967 242.541 68.622C242.541 68.1087 242.667 67.656 242.919 67.264C243.18 66.872 243.535 66.5687 243.983 66.354C244.431 66.13 244.949 66.018 245.537 66.018C246.078 66.018 246.587 66.1067 247.063 66.284C247.548 66.452 248.033 66.718 248.519 67.082L248.225 67.474C247.786 67.1473 247.352 66.9047 246.923 66.746C246.493 66.5873 246.031 66.508 245.537 66.508C244.827 66.508 244.235 66.69 243.759 67.054C243.283 67.418 243.045 67.9407 243.045 68.622C243.045 69.2473 243.236 69.7373 243.619 70.092C244.001 70.4373 244.603 70.6753 245.425 70.806C246.675 71.0113 247.567 71.3287 248.099 71.758C248.64 72.1873 248.911 72.8127 248.911 73.634C248.911 74.1567 248.761 74.6093 248.463 74.992C248.173 75.3653 247.781 75.6547 247.287 75.86C246.801 76.056 246.265 76.154 245.677 76.154ZM253.147 76V66.2H258.999V66.676H253.623V70.736H258.523V71.24H253.623V75.51H259.181V76H253.147ZM265.988 76V66.676H262.628V66.2H269.838V66.676H266.478V76H265.988ZM274.186 76.154C274.009 76.154 273.855 76.0933 273.724 75.972C273.603 75.8507 273.542 75.7013 273.542 75.524C273.542 75.3373 273.603 75.1833 273.724 75.062C273.855 74.9407 274.009 74.88 274.186 74.88C274.364 74.88 274.513 74.9407 274.634 75.062C274.756 75.1833 274.816 75.3373 274.816 75.524C274.816 75.7013 274.756 75.8507 274.634 75.972C274.513 76.0933 274.364 76.154 274.186 76.154Z" fill="white"/>
<path d="M286.279 76V66.676H282.919V66.2H290.129V66.676H286.769V76H286.279ZM294.099 76V66.2H294.575V70.652H300.567V66.2H301.057V76H300.567V71.128H294.575V76H294.099ZM305.701 76V66.186H309.859C310.793 66.186 311.483 66.4007 311.931 66.83C312.379 67.2593 312.603 67.852 312.603 68.608C312.603 69.364 312.384 69.9567 311.945 70.386C311.516 70.806 310.844 71.0253 309.929 71.044L312.645 76H312.085L309.355 71.044H306.177V76H305.701ZM306.177 70.554H309.859C310.634 70.554 311.203 70.3953 311.567 70.078C311.931 69.7607 312.113 69.2707 312.113 68.608C312.113 67.9453 311.931 67.46 311.567 67.152C311.203 66.8347 310.634 66.676 309.859 66.676H306.177V70.554ZM316.756 76V66.2H317.232V76H316.756ZM324.678 76L320.94 66.2H321.458L324.874 75.174L328.276 66.2H328.794L325.056 76H324.678ZM332.509 76V66.2H338.361V66.676H332.985V70.736H337.885V71.24H332.985V75.51H338.543V76H332.509ZM343.04 76.154C342.863 76.154 342.709 76.0933 342.578 75.972C342.457 75.8507 342.396 75.7013 342.396 75.524C342.396 75.3373 342.457 75.1833 342.578 75.062C342.709 74.9407 342.863 74.88 343.04 74.88C343.217 74.88 343.367 74.9407 343.488 75.062C343.609 75.1833 343.67 75.3373 343.67 75.524C343.67 75.7013 343.609 75.8507 343.488 75.972C343.367 76.0933 343.217 76.154 343.04 76.154Z" fill="white"/>
</svg>
