<svg width="401" height="40" viewBox="0 0 401 40" fill="none" xmlns="http://www.w3.org/2000/svg">
<path d="M0.562412 0.701287L0 7.97371H1.01692L1.05289 7.56237C1.38969 3.57721 2.06982 1.80041 5.19254 1.80041H12.8113V36.2373C12.8113 37.9737 12.0429 38.267 9.73439 38.267H8.59647V39.2785H21.555V38.267H20.417C18.1085 38.267 17.3401 37.9737 17.3401 36.2373V1.80041H24.9589C28.0816 1.80041 28.7617 3.58058 29.0985 7.56237L29.1345 7.97371H30.1514L29.589 0.701287H0.562412Z" fill="white"/>
<path d="M54.5021 1.71612H55.64C57.9518 1.71612 58.7202 2.00943 58.7202 3.74578V19.2448H40.1572V3.74578C40.1572 2.00943 40.9256 1.71612 43.2374 1.71612H44.3753V0.704662H31.4169V1.71612H32.5548C34.8666 1.71612 35.6317 2.00943 35.6317 3.74578V36.2407C35.6317 37.9771 34.8633 38.2704 32.5548 38.2704H31.4169V39.2819H44.3753V38.2704H43.2374C40.9256 38.2704 40.1572 37.9771 40.1572 36.2407V20.3709H58.7202V36.2407C58.7202 37.9771 57.9518 38.2704 55.64 38.2704H54.5021V39.2819H67.4606V38.2704H66.3227C64.0109 38.2704 63.2425 37.9771 63.2425 36.2407V3.74578C63.2425 2.00943 64.0109 1.71612 66.3227 1.71612H67.4606V0.704662H54.5021V1.71612Z" fill="white"/>
<path d="M98.7107 36.0519C98.3804 35.3237 97.7886 34.1268 97.0529 32.6332C95.9902 30.4787 94.6691 27.7984 93.3481 24.9595C92.1448 22.3702 90.7682 20.8361 89.1038 20.2663C96.049 17.9265 98.7826 15.0202 98.7826 10.0978C98.7826 4.13015 94.4337 0.708037 86.8509 0.708037H69.5795V1.7195H70.7174C73.0292 1.7195 73.7976 2.01281 73.7976 3.74578V36.2407C73.7976 37.9771 73.0292 38.2704 70.7174 38.2704H69.5795V39.2819H82.5379V38.2704H81.4C79.0882 38.2704 78.3198 37.9771 78.3198 36.2407V27.8827C78.3198 26.3318 79.0621 23.9852 85.3598 21.5442C85.9026 21.4127 86.9555 21.4633 87.9169 23.4154C89.1202 25.8631 91.1998 30.2259 92.7497 33.4794L94.1623 36.4397C95.431 39.0829 97.5924 39.292 99.6099 39.292C99.7996 39.292 99.9859 39.292 100.172 39.2886H103.187V38.2704H101.598C100.846 38.2704 99.453 37.6804 98.7107 36.0519ZM87.6128 19.5954C86.5926 19.9191 85.6934 20.2326 84.853 20.5597H84.8465C81.6518 21.8071 79.497 23.203 78.3198 24.7977V1.80379H86.8509C91.6282 1.80379 94.2571 4.75051 94.2571 10.0944C94.2571 15.4383 92.2691 18.1254 87.6095 19.592L87.6128 19.5954Z" fill="white"/>
<path d="M183.054 32.4174C182.717 36.4026 182.037 38.1794 178.914 38.1794H163.425V20.0068H173.849C175.533 20.0068 175.817 20.7991 175.817 23.1827V23.7761H176.798V15.1382H175.817V15.7316C175.817 18.1119 175.533 18.9042 173.849 18.9042L163.425 18.911V1.80041H178.07C181.193 1.80041 181.873 3.58058 182.21 7.56237L182.243 7.97371H183.26L182.697 0.701287H146.143V1.71275H147.513C148.553 1.71275 149.554 1.7667 149.809 2.16117C149.963 2.40055 149.904 2.88942 149.629 3.57047L137.926 32.5792L126.364 3.57385C126.093 2.88943 126.03 2.40391 126.184 2.16453C126.442 1.77005 127.443 1.71275 128.489 1.71275H129.859V0.701287H104.613V1.71275H105.751C108.059 1.71275 108.828 2.00608 108.828 3.74243V36.2373C108.828 37.9737 108.059 38.267 105.751 38.267H104.613V39.2785H117.571V38.267H116.433C114.125 38.267 113.356 37.9737 113.356 36.2373V3.74243C113.356 2.00608 114.125 1.71275 116.433 1.71275H117.571V1.706C119.772 1.71612 120.828 2.03978 121.58 3.91436L136.082 40L150.672 3.85367C151.424 2.02967 152.487 1.71612 154.681 1.70938V1.71612H155.819C158.127 1.71612 158.896 2.00943 158.896 3.74578V36.2407C158.896 37.9771 158.127 38.2704 155.819 38.2704H154.681V39.2819H183.541L184.103 32.0061H183.086L183.054 32.4174Z" fill="white"/>
<path d="M225.156 23.0378L212.757 0.701287H201.12V1.71275H202.258C204.566 1.71275 205.334 2.00608 205.334 3.74243V36.2373C205.334 37.9737 204.566 38.267 202.258 38.267H201.12V39.2785H214.039V38.267H212.901C210.589 38.267 209.821 37.9737 209.821 36.2407V4.82468L211.407 7.68039C215.255 14.6123 221.046 25.0337 222.135 26.9858L222.498 27.6399C221.01 30.263 219.529 33.1591 219.529 35.0978C219.529 37.6399 221.059 39.2819 223.43 39.2819C226.906 39.2819 228.982 36.9487 228.982 33.0378C228.982 30.381 227.288 26.915 225.761 24.1369L237.938 3.17263V36.2407C237.938 37.9771 237.17 38.2704 234.858 38.2704H233.72V39.2819H246.679V38.2704H245.541C243.229 38.2704 242.461 37.9771 242.461 36.2407V3.74578C242.461 2.00943 243.229 1.71612 245.537 1.71612H246.675V0.704662H238.125L225.153 23.0411L225.156 23.0378ZM223.433 38.1794C221.658 38.1794 220.598 37.0263 220.598 35.0944C220.598 33.5705 221.873 30.9946 223.116 28.7458C224.545 31.3452 225.755 33.7525 225.755 35.2495C225.755 37.0533 224.865 38.176 223.436 38.176L223.433 38.1794Z" fill="white"/>
<path d="M315.33 32.4174C314.993 36.4026 314.313 38.1794 311.19 38.1794H295.982V3.74243C295.982 2.00608 296.75 1.71275 299.059 1.71275H300.197V0.701287H287.238V1.71275H288.376C290.685 1.71275 291.453 2.00608 291.453 3.74243V36.2373C291.453 37.9737 290.685 38.267 288.376 38.267H286.47C284.187 38.267 283.108 37.9636 282.343 36.0654L267.58 0L252.754 36.0654C251.986 37.9602 250.907 38.267 248.621 38.267H247.718V39.2785H257.283V38.267H255.864C254.824 38.267 253.83 38.2131 253.575 37.8186C253.424 37.5826 253.487 37.0971 253.764 36.4228L255.193 32.9501C255.494 32.2151 256.465 29.8584 257.695 26.8645H273.341L277.252 36.4127C277.53 37.0937 277.595 37.5792 277.445 37.8186C277.193 38.2131 276.192 38.267 275.156 38.267H273.734V39.2785H315.82L316.382 32.0027H315.365L315.333 32.414L315.33 32.4174ZM258.13 25.8058C261.21 18.3108 265.529 7.80513 265.529 7.80513L272.906 25.8058H258.13Z" fill="white"/>
<path d="M317.936 1.71612H319.073C321.385 1.71612 322.154 2.00943 322.154 3.74578V36.2407C322.154 37.9771 321.385 38.2704 319.073 38.2704H317.936V39.2819H330.894V38.2704H329.756C327.444 38.2704 326.676 37.9771 326.676 36.2407V3.74578C326.676 2.00943 327.444 1.71612 329.756 1.71612H330.894V0.704662H317.936V1.71612Z" fill="white"/>
<path d="M361.69 21.6419C359.842 20.0506 357.671 19.2313 355.853 18.9852C360.385 16.8746 362.278 14.1942 362.278 10.0944C362.278 4.12677 357.929 0.704662 350.346 0.704662H333.075V1.71612H334.213C336.522 1.71612 337.29 2.00943 337.29 3.74578V36.2407C337.29 37.9771 336.522 38.2704 334.213 38.2704H333.075V39.2819H352.877C360.526 39.2819 365.09 35.4855 365.09 29.1234C365.09 25.3641 363.243 22.9804 361.69 21.6453V21.6419ZM341.819 1.80379H350.35C355.127 1.80379 357.756 4.74713 357.756 10.0944C357.756 15.4417 355.768 18.1288 351.108 19.5954C347.91 20.6102 343.745 22.1982 341.819 24.8045V1.80379ZM352.881 38.1794H341.819V27.886C341.819 26.0856 342.816 23.3749 351.426 20.644L351.782 20.5293C353.577 20.0371 355.663 20.5462 357.357 21.8914C359.427 23.5334 360.565 26.0991 360.565 29.12C360.565 33.6278 358.188 38.1794 352.877 38.1794H352.881Z" fill="white"/>
<path d="M391.501 0.701287V1.71275H392.639C394.951 1.71275 395.719 2.00608 395.719 3.74243V27.2353C395.719 31.2677 393.365 38.0917 384.536 38.0917C376.198 38.0917 375.129 32.2893 375.129 27.2353V3.74243C375.129 2.00608 375.897 1.71275 378.206 1.71275H379.344V0.701287H366.385V1.71275H367.523C369.832 1.71275 370.6 2.00608 370.6 3.74243V27.2353C370.6 35 375.551 39.2785 384.533 39.2785C394.222 39.2785 396.782 31.4026 396.782 27.2353V3.74243C396.782 2.00608 397.55 1.71275 399.862 1.71275H401V0.701287H391.501Z" fill="white"/>
</svg>
