<svg width="364" height="65" viewBox="0 0 364 65" fill="none" xmlns="http://www.w3.org/2000/svg">
<path d="M0.510519 0.631158L0 7.17634H0.923093L0.955742 6.80613C1.26146 3.21948 1.87884 1.62037 4.71343 1.62037H11.6292V32.6136C11.6292 34.1763 10.9317 34.4403 8.8362 34.4403H7.80328V35.3506H19.5661V34.4403H18.5332C16.4377 34.4403 15.7401 34.1763 15.7401 32.6136V1.62037H22.6559C25.4905 1.62037 26.1079 3.22252 26.4136 6.80613L26.4463 7.17634H27.3694L26.8589 0.631158H0.510519Z" fill="white"/>
<path d="M49.4732 1.54451H50.5062C52.6047 1.54451 53.3022 1.80849 53.3022 3.3712V17.3203H36.4519V3.3712C36.4519 1.80849 37.1495 1.54451 39.2479 1.54451H40.2809V0.634196H28.5181V1.54451H29.551C31.6495 1.54451 32.344 1.80849 32.344 3.3712V32.6166C32.344 34.1794 31.6465 34.4434 29.551 34.4434H28.5181V35.3537H40.2809V34.4434H39.2479C37.1495 34.4434 36.4519 34.1794 36.4519 32.6166V18.3338H53.3022V32.6166C53.3022 34.1794 52.6047 34.4434 50.5062 34.4434H49.4732V35.3537H61.2361V34.4434H60.2031C58.1046 34.4434 57.4071 34.1794 57.4071 32.6166V3.3712C57.4071 1.80849 58.1046 1.54451 60.2031 1.54451H61.2361V0.634196H49.4732V1.54451Z" fill="white"/>
<path d="M89.6027 32.4467C89.3029 31.7913 88.7657 30.7141 88.0979 29.3698C87.1332 27.4309 85.9341 25.0185 84.7349 22.4636C83.6427 20.1332 82.3931 18.7525 80.8823 18.2397C87.1867 16.1338 89.668 13.5182 89.668 9.088C89.668 3.71713 85.7204 0.637233 78.8372 0.637233H63.1594V1.54755H64.1923C66.2908 1.54755 66.9883 1.81153 66.9883 3.3712V32.6166C66.9883 34.1794 66.2908 34.4434 64.1923 34.4434H63.1594V35.3537H74.9222V34.4434H73.8893C71.7908 34.4434 71.0933 34.1794 71.0933 32.6166V25.0944C71.0933 23.6986 71.7671 21.5867 77.4837 19.3898C77.9765 19.2714 78.9322 19.3169 79.8048 21.0738C80.8971 23.2768 82.7849 27.2033 84.1918 30.1315L85.474 32.7957C86.6257 35.1746 88.5876 35.3628 90.419 35.3628C90.5911 35.3628 90.7603 35.3628 90.9295 35.3597H93.6661V34.4434H92.2236C91.5409 34.4434 90.2765 33.9123 89.6027 32.4467ZM79.5288 17.6359C78.6027 17.9272 77.7865 18.2094 77.0237 18.5037H77.0177C74.1178 19.6264 72.1618 20.8827 71.0933 22.3179V1.62341H78.8372C83.1737 1.62341 85.5601 4.27546 85.5601 9.08496C85.5601 13.8945 83.7555 16.3129 79.5258 17.6328L79.5288 17.6359Z" fill="white"/>
<path d="M166.163 29.1757C165.858 32.7623 165.24 34.3614 162.406 34.3614H148.346V18.0061H157.808C159.337 18.0061 159.595 18.7192 159.595 20.8645V21.3985H160.485V13.6244H159.595V14.1585C159.595 16.3007 159.337 17.0138 157.808 17.0138L148.346 17.0199V1.62037H161.64C164.475 1.62037 165.092 3.22252 165.398 6.80613L165.427 7.17634H166.35L165.84 0.631158H132.659V1.54147H133.902C134.846 1.54147 135.755 1.59003 135.986 1.94505C136.126 2.1605 136.072 2.60048 135.823 3.21343L125.2 29.3213L114.704 3.21646C114.458 2.60048 114.402 2.16351 114.541 1.94807C114.776 1.59305 115.684 1.54147 116.634 1.54147H117.877V0.631158H94.9603V1.54147H95.9932C98.0887 1.54147 98.7862 1.80547 98.7862 3.36818V32.6136C98.7862 34.1763 98.0887 34.4403 95.9932 34.4403H94.9603V35.3506H106.723V34.4403H105.69C103.595 34.4403 102.897 34.1763 102.897 32.6136V3.36818C102.897 1.80547 103.595 1.54147 105.69 1.54147H106.723V1.5354C108.721 1.5445 109.679 1.8358 110.362 3.52292L123.526 36L136.77 3.4683C137.452 1.8267 138.417 1.54451 140.409 1.53844V1.54451H141.442C143.537 1.54451 144.235 1.80849 144.235 3.3712V32.6166C144.235 34.1794 143.537 34.4434 141.442 34.4434H140.409V35.3537H166.606L167.116 28.8055H166.193L166.163 29.1757Z" fill="white"/>
<path d="M204.381 20.734L193.126 0.631158H182.562V1.54147H183.595C185.691 1.54147 186.388 1.80547 186.388 3.36818V32.6136C186.388 34.1763 185.691 34.4403 183.595 34.4403H182.562V35.3506H194.29V34.4403H193.257C191.158 34.4403 190.461 34.1763 190.461 32.6166V4.34221L191.9 6.91235C195.394 13.1511 200.65 22.5303 201.639 24.2872L201.968 24.8759C200.618 27.2367 199.273 29.8432 199.273 31.588C199.273 33.8759 200.662 35.3537 202.814 35.3537C205.969 35.3537 207.854 33.2539 207.854 29.734C207.854 27.3429 206.317 24.2235 204.93 21.7232L215.984 2.85537V32.6166C215.984 34.1794 215.286 34.4434 213.188 34.4434H212.155V35.3537H223.918V34.4434H222.885C220.786 34.4434 220.089 34.1794 220.089 32.6166V3.3712C220.089 1.80849 220.786 1.54451 222.882 1.54451H223.915V0.634196H216.153L204.378 20.737L204.381 20.734ZM202.817 34.3614C201.205 34.3614 200.244 33.3237 200.244 31.585C200.244 30.2134 201.401 27.8951 202.529 25.8712C203.826 28.2107 204.925 30.3773 204.925 31.7245C204.925 33.3479 204.117 34.3584 202.82 34.3584L202.817 34.3614Z" fill="white"/>
<path d="M286.234 29.1757C285.929 32.7623 285.311 34.3614 282.477 34.3614H268.672V3.36818C268.672 1.80547 269.369 1.54147 271.465 1.54147H272.498V0.631158H260.735V1.54147H261.768C263.863 1.54147 264.561 1.80547 264.561 3.36818V32.6136C264.561 34.1763 263.863 34.4403 261.768 34.4403H260.037C257.966 34.4403 256.986 34.1672 256.291 32.4589L242.89 0L229.433 32.4589C228.735 34.1642 227.756 34.4403 225.681 34.4403H224.862V35.3506H233.544V34.4403H232.255C231.311 34.4403 230.409 34.3918 230.178 34.0367C230.041 33.8243 230.097 33.3874 230.35 32.7805L231.647 29.6551C231.92 28.9936 232.801 26.8725 233.917 24.178H248.12L251.67 32.7714C251.922 33.3844 251.982 33.8213 251.845 34.0367C251.617 34.3918 250.708 34.4403 249.767 34.4403H248.476V35.3506H286.679L287.19 28.8024H286.267L286.237 29.1726L286.234 29.1757ZM234.312 23.2252C237.108 16.4798 241.029 7.02462 241.029 7.02462L247.725 23.2252H234.312Z" fill="white"/>
<path d="M288.6 1.54451H289.633C291.731 1.54451 292.429 1.80849 292.429 3.3712V32.6166C292.429 34.1794 291.731 34.4434 289.633 34.4434H288.6V35.3537H300.363V34.4434H299.33C297.231 34.4434 296.534 34.1794 296.534 32.6166V3.3712C296.534 1.80849 297.231 1.54451 299.33 1.54451H300.363V0.634196H288.6V1.54451Z" fill="white"/>
<path d="M328.317 19.4777C326.64 18.0455 324.669 17.3082 323.019 17.0866C327.132 15.1871 328.851 12.7748 328.851 9.08496C328.851 3.71409 324.903 0.634196 318.02 0.634196H302.342V1.54451H303.375C305.471 1.54451 306.168 1.80849 306.168 3.3712V32.6166C306.168 34.1794 305.471 34.4434 303.375 34.4434H302.342V35.3537H320.318C327.26 35.3537 331.404 31.9369 331.404 26.2111C331.404 22.8277 329.727 20.6824 328.317 19.4808V19.4777ZM310.279 1.62341H318.023C322.36 1.62341 324.746 4.27242 324.746 9.08496C324.746 13.8975 322.941 16.3159 318.712 17.6359C315.809 18.5492 312.028 19.9784 310.279 22.324V1.62341ZM320.321 34.3614H310.279V25.0974C310.279 23.4771 311.185 21.0374 319 18.5796L319.323 18.4764C320.953 18.0334 322.846 18.4916 324.384 19.7023C326.263 21.18 327.296 23.4892 327.296 26.208C327.296 30.265 325.138 34.3614 320.318 34.3614H320.321Z" fill="white"/>
<path d="M355.377 0.631158V1.54147H356.41C358.509 1.54147 359.206 1.80547 359.206 3.36818V24.5118C359.206 28.1409 357.069 34.2825 349.055 34.2825C341.486 34.2825 340.516 29.0604 340.516 24.5118V3.36818C340.516 1.80547 341.213 1.54147 343.309 1.54147H344.342V0.631158H332.579V1.54147H333.612C335.707 1.54147 336.405 1.80547 336.405 3.36818V24.5118C336.405 31.5 340.899 35.3506 349.052 35.3506C357.847 35.3506 360.171 28.2623 360.171 24.5118V3.36818C360.171 1.80547 360.869 1.54147 362.967 1.54147H364V0.631158H355.377Z" fill="white"/>
<path d="M88.6734 60V50.186H92.8314C93.7647 50.186 94.4554 50.4007 94.9034 50.83C95.3514 51.2593 95.5754 51.852 95.5754 52.608C95.5754 53.364 95.3561 53.9567 94.9174 54.386C94.4881 54.806 93.8161 55.0253 92.9014 55.044L95.6174 60H95.0574L92.3274 55.044H89.1494V60H88.6734ZM89.1494 54.554H92.8314C93.6061 54.554 94.1754 54.3953 94.5394 54.078C94.9034 53.7607 95.0854 53.2707 95.0854 52.608C95.0854 51.9453 94.9034 51.46 94.5394 51.152C94.1754 50.8347 93.6061 50.676 92.8314 50.676H89.1494V54.554ZM99.7285 60V50.2H105.58V50.676H100.204V54.736H105.104V55.24H100.204V59.51H105.762V60H99.7285ZM109.881 60V50.2H110.357V54.652H116.349V50.2H116.839V60H116.349V55.128H110.357V60H109.881ZM120.545 60L124.563 50.2H124.983L129.001 60H128.483L127.125 56.64H122.435L121.063 60H120.545ZM122.617 56.164H126.929L124.787 50.858L122.617 56.164ZM132.716 60V50.2H136.02C137.028 50.2 137.747 50.4193 138.176 50.858C138.605 51.2967 138.82 51.9033 138.82 52.678C138.82 53.182 138.694 53.6207 138.442 53.994C138.19 54.358 137.854 54.6333 137.434 54.82C138.031 55.0253 138.498 55.3613 138.834 55.828C139.17 56.2947 139.338 56.8173 139.338 57.396C139.338 58.2173 139.1 58.8567 138.624 59.314C138.157 59.7713 137.378 60 136.286 60H132.716ZM133.192 59.51H136.286C137.201 59.51 137.854 59.3373 138.246 58.992C138.647 58.6373 138.848 58.1053 138.848 57.396C138.848 56.7053 138.605 56.15 138.12 55.73C137.644 55.3007 137.014 55.086 136.23 55.086H133.192V59.51ZM133.192 54.61H136.23C136.893 54.61 137.406 54.4233 137.77 54.05C138.143 53.6767 138.33 53.2193 138.33 52.678C138.33 51.9873 138.148 51.4833 137.784 51.166C137.42 50.8393 136.832 50.676 136.02 50.676H133.192V54.61ZM143.958 60.154C143.78 60.154 143.626 60.0933 143.496 59.972C143.374 59.8507 143.314 59.7013 143.314 59.524C143.314 59.3373 143.374 59.1833 143.496 59.062C143.626 58.9407 143.78 58.88 143.958 58.88C144.135 58.88 144.284 58.9407 144.406 59.062C144.527 59.1833 144.588 59.3373 144.588 59.524C144.588 59.7013 144.527 59.8507 144.406 59.972C144.284 60.0933 144.135 60.154 143.958 60.154Z" fill="white"/>
<path d="M153.445 60V50.186H157.603C158.536 50.186 159.227 50.4007 159.675 50.83C160.123 51.2593 160.347 51.852 160.347 52.608C160.347 53.364 160.128 53.9567 159.689 54.386C159.26 54.806 158.588 55.0253 157.673 55.044L160.389 60H159.829L157.099 55.044H153.921V60H153.445ZM153.921 54.554H157.603C158.378 54.554 158.947 54.3953 159.311 54.078C159.675 53.7607 159.857 53.2707 159.857 52.608C159.857 51.9453 159.675 51.46 159.311 51.152C158.947 50.8347 158.378 50.676 157.603 50.676H153.921V54.554ZM164.5 60V50.2H170.352V50.676H164.976V54.736H169.876V55.24H164.976V59.51H170.534V60H164.5ZM177.677 60.154C176.967 60.154 176.323 60.042 175.745 59.818C175.166 59.594 174.667 59.258 174.247 58.81L174.597 58.474C175.353 59.2767 176.379 59.678 177.677 59.678C178.115 59.678 178.545 59.608 178.965 59.468C179.394 59.3187 179.744 59.0947 180.015 58.796C180.295 58.488 180.435 58.1007 180.435 57.634C180.435 57.242 180.355 56.8967 180.197 56.598C180.038 56.2993 179.735 56.0427 179.287 55.828C178.848 55.604 178.199 55.4267 177.341 55.296C175.474 54.988 174.541 54.0967 174.541 52.622C174.541 52.1087 174.667 51.656 174.919 51.264C175.18 50.872 175.535 50.5687 175.983 50.354C176.431 50.13 176.949 50.018 177.537 50.018C178.078 50.018 178.587 50.1067 179.063 50.284C179.548 50.452 180.033 50.718 180.519 51.082L180.225 51.474C179.786 51.1473 179.352 50.9047 178.923 50.746C178.493 50.5873 178.031 50.508 177.537 50.508C176.827 50.508 176.235 50.69 175.759 51.054C175.283 51.418 175.045 51.9407 175.045 52.622C175.045 53.2473 175.236 53.7373 175.619 54.092C176.001 54.4373 176.603 54.6753 177.425 54.806C178.675 55.0113 179.567 55.3287 180.099 55.758C180.64 56.1873 180.911 56.8127 180.911 57.634C180.911 58.1567 180.761 58.6093 180.463 58.992C180.173 59.3653 179.781 59.6547 179.287 59.86C178.801 60.056 178.265 60.154 177.677 60.154ZM185.147 60V50.2H190.999V50.676H185.623V54.736H190.523V55.24H185.623V59.51H191.181V60H185.147ZM197.988 60V50.676H194.628V50.2H201.838V50.676H198.478V60H197.988ZM206.186 60.154C206.009 60.154 205.855 60.0933 205.724 59.972C205.603 59.8507 205.542 59.7013 205.542 59.524C205.542 59.3373 205.603 59.1833 205.724 59.062C205.855 58.9407 206.009 58.88 206.186 58.88C206.364 58.88 206.513 58.9407 206.634 59.062C206.756 59.1833 206.816 59.3373 206.816 59.524C206.816 59.7013 206.756 59.8507 206.634 59.972C206.513 60.0933 206.364 60.154 206.186 60.154Z" fill="white"/>
<path d="M218.279 60V50.676H214.919V50.2H222.129V50.676H218.769V60H218.279ZM226.099 60V50.2H226.575V54.652H232.567V50.2H233.057V60H232.567V55.128H226.575V60H226.099ZM237.701 60V50.186H241.859C242.793 50.186 243.483 50.4007 243.931 50.83C244.379 51.2593 244.603 51.852 244.603 52.608C244.603 53.364 244.384 53.9567 243.945 54.386C243.516 54.806 242.844 55.0253 241.929 55.044L244.645 60H244.085L241.355 55.044H238.177V60H237.701ZM238.177 54.554H241.859C242.634 54.554 243.203 54.3953 243.567 54.078C243.931 53.7607 244.113 53.2707 244.113 52.608C244.113 51.9453 243.931 51.46 243.567 51.152C243.203 50.8347 242.634 50.676 241.859 50.676H238.177V54.554ZM248.756 60V50.2H249.232V60H248.756ZM256.678 60L252.94 50.2H253.458L256.874 59.174L260.276 50.2H260.794L257.056 60H256.678ZM264.509 60V50.2H270.361V50.676H264.985V54.736H269.885V55.24H264.985V59.51H270.543V60H264.509ZM275.04 60.154C274.863 60.154 274.709 60.0933 274.578 59.972C274.457 59.8507 274.396 59.7013 274.396 59.524C274.396 59.3373 274.457 59.1833 274.578 59.062C274.709 58.9407 274.863 58.88 275.04 58.88C275.217 58.88 275.367 58.9407 275.488 59.062C275.609 59.1833 275.67 59.3373 275.67 59.524C275.67 59.7013 275.609 59.8507 275.488 59.972C275.367 60.0933 275.217 60.154 275.04 60.154Z" fill="white"/>
</svg>
